G04 MADE WITH FRITZING*
G04 WWW.FRITZING.ORG*
G04 DOUBLE SIDED*
G04 HOLES PLATED*
G04 CONTOUR ON CENTER OF CONTOUR VECTOR*
%ASAXBY*%
%FSLAX23Y23*%
%MOIN*%
%OFA0B0*%
%SFA1.0B1.0*%
%ADD10C,0.073889*%
%ADD11C,0.052685*%
%ADD12C,0.077778*%
%ADD13C,0.024000*%
%ADD14C,0.011111*%
%LNCOPPER0*%
G90*
G70*
G54D10*
X590Y163D03*
X690Y163D03*
X790Y163D03*
X890Y163D03*
G54D11*
X789Y2063D03*
X689Y2063D03*
X589Y2063D03*
X490Y2063D03*
G54D12*
X1190Y1463D03*
X1090Y1463D03*
X990Y1463D03*
X890Y1463D03*
X790Y1463D03*
X690Y1463D03*
X590Y1463D03*
X490Y1463D03*
X490Y563D03*
X590Y563D03*
X690Y563D03*
X790Y563D03*
X890Y563D03*
X990Y563D03*
X1090Y563D03*
X1190Y563D03*
G54D13*
X588Y1964D02*
X391Y1964D01*
D02*
X589Y2039D02*
X588Y1964D01*
D02*
X391Y1964D02*
X391Y1363D01*
D02*
X391Y1363D02*
X391Y663D01*
D02*
X588Y663D02*
X589Y592D01*
D02*
X391Y663D02*
X588Y663D01*
D02*
X1090Y2062D02*
X813Y2063D01*
D02*
X1090Y1492D02*
X1090Y2062D01*
G54D14*
D02*
X889Y63D02*
X489Y63D01*
D02*
X489Y63D02*
X490Y539D01*
D02*
X889Y134D02*
X889Y63D01*
G54D13*
D02*
X466Y2063D02*
X288Y2062D01*
D02*
X288Y2062D02*
X288Y1363D01*
D02*
X288Y564D02*
X460Y563D01*
D02*
X288Y1363D02*
X288Y564D01*
G04 End of Copper0*
M02*