; NON-PLATED HOLES START AT T1
; THROUGH (PLATED) HOLES START AT T100
M48
INCH
T1C0.086614
T100C0.024956
T101C0.046111
T102C0.036111
%
T1
X015895Y020627
X000895Y001627
X000895Y020627
X015895Y001627
T100
X007889Y020627
X006891Y020627
X004895Y020627
X005893Y020627
T101
X008895Y001627
X007895Y001627
X006895Y001627
X005895Y001627
T102
X005895Y014627
X006895Y014627
X005895Y005627
X006895Y005627
X007895Y014627
X008895Y014627
X009895Y014627
X007895Y005627
X008895Y005627
X010895Y014627
X009895Y005627
X011895Y014627
X010895Y005627
X011895Y005627
X004895Y014627
X004895Y005627
T00
M30
